Set almost entirely in a used car dealership, [i]Call Me Fitz[/i] follows a handsome, substance abusing scoundrel, Fitz (Jason Priestley), who torments his naïve co-workers, sleeps with any woman who has a pulse, and thinks his life is perfect.   In an attempt to secure a hold on 'Salesman of the Year', Fitz takes a potential customer for a test drive and she winds up in a coma. The accident itself unleashes something in Fitz: the last unblemished corner of his damaged soul.  Larry (Ernie Grunwald) shows up on the Fitzpatrick lot intent on rehabilitating Fitz's battered psyche and the entire Fitz family's sleazy way of life.  This is not as easy as he'd hoped, as daily events include impromptu porn shoots, black market kidney trading, sniper shakedowns, cowboy themed bachelor parties, long nights in the drunk tank and more brain damaged sex than even Fitz can handle.  It's all in a day's work at Fitzpatrick Motors.

In the season 2 premiere Fitz' father has his annual prostate exam and instead the doctor believes he might have testicular cancer. A fortune-teller informs Fitz that he is cursed, that someone is trying to kill him, and that he needs to make amends to everyone he has wronged. Mr Fitzpatrick hires a new office manager.

CAST : 
Jason Priestley	 ...	Richard Fitzpatrick
Ernie Grunwald	 ...	Larry
Tracy Dawson  	 ...	Meghan Fitzpatrick
Amy Sloan      	 ...	Dot Foxley


NOTES :
The first release had a pvr popup notice at 13.07. It was only 2 seconds but it 
really annoyed me.

This release also has no warppoints in the encoding while the previous release 
had 3 warppoints. 


DETAILS :
Complete name                    : Call.Me.Fitz.s02.e01.RERiP.WS.XviD-jAh.avi
Format                           : AVI
Format/Info                      : Audio Video Interleave
File size                        : 233 MiB
Duration                         : 27mn 59s
Overall bit rate mode            : Variable
Overall bit rate                 : 1 164 Kbps
Writing application              : VirtualDubMod 1.5.4.1 (build 2178/release)
Writing library                  : VirtualDubMod build 2178/release

Video
ID                               : 0
Format                           : MPEG-4 Visual
Format profile                   : Advanced Simple@L5
Format settings, BVOP            : 1
Format settings, QPel            : No
Format settings, GMC             : No warppoints
Format settings, Matrix          : Default (H.263)
Muxing mode                      : Packed bitstream
Codec ID                         : XVID
Codec ID/Hint                    : XviD
Duration                         : 27mn 59s
Bit rate                         : 1 039 Kbps
Width                            : 624 pixels
Height                           : 352 pixels
Display aspect ratio             : 16:9
Frame rate                       : 23.976 fps
Color space                      : YUV
Chroma subsampling               : 4:2:0
Bit depth                        : 8 bits
Scan type                        : Progressive
Compression mode                 : Lossy
Bits/(Pixel*Frame)               : 0.197
Stream size                      : 208 MiB (89%)
Writing library                  : XviD 1.2.1 (UTC 2008-12-04)

Audio
ID                               : 1
Format                           : MPEG Audio
Format version                   : Version 1
Format profile                   : Layer 3
Mode                             : Joint stereo
Mode extension                   : MS Stereo
Codec ID                         : 55
Codec ID/Hint                    : MP3
Duration                         : 27mn 59s
Bit rate mode                    : Variable
Bit rate                         : 113 Kbps
Nominal bit rate                 : 128 Kbps
Channel(s)                       : 2 channels
Sampling rate                    : 48.0 KHz
Compression mode                 : Lossy
Stream size                      : 22.6 MiB (10%)
Alignment                        : Aligned on interleaves
Interleave, duration             : 24 ms (0.58 video frame)
Interleave, preload duration     : 507 ms
Writing library                  : LAME3.98r
Encoding settings                : -m j -V 4 -q 2 -lowpass 17 --abr 128
